<svg width="17" height="24" viewBox="0 0 17 24" fill="none" xmlns="http://www.w3.org/2000/svg">
<path d="M2.76024 17.1295C2.73999 17.1321 2.71975 17.1335 2.69962 17.1335C1.90663 17.1335 0.797488 16.8176 0 16.2107V23.9985H4.04837C4.04837 20.3308 3.33164 18.2253 2.76024 17.1295Z" fill="#674C33"/>
<path d="M2.86658 14.0705C2.87615 14.0738 2.8862 14.0776 2.89655 14.0819C4.62165 11.3965 5.48576 7.89606 5.91853 5.05694C5.19288 4.83995 4.49239 4.5301 3.83458 4.13476C2.44412 3.29906 1.26209 2.08994 0.416301 0.638084L0.0447518 0.000312805H0V12.458C0 12.458 1.52573 13.6115 2.86658 14.0705Z" fill="#674C33"/>
<path d="M16.9722 16.2319C16.5793 16.5219 16.1489 16.7135 15.8204 16.8318C15.2856 17.0245 14.7118 17.135 14.2462 17.135C14.2344 17.135 14.2225 17.1345 14.2106 17.1336C13.6395 18.2301 12.9238 20.3351 12.9238 24H16.9722V16.2319Z" fill="#674C33"/>
<path d="M11.0537 5.05663C11.486 7.89286 12.3488 11.3891 14.0704 14.0734C14.0734 14.0724 14.0764 14.0712 14.0793 14.0702C15.3965 13.6193 16.9722 12.4864 16.9722 12.4864V0H16.9275L16.5559 0.637799C15.7101 2.08963 14.5281 3.29874 13.1376 4.13445C12.4798 4.52978 11.7794 4.83961 11.0537 5.05663Z" fill="#674C33"/>
<path d="M6.05051 4.11484C6.82459 4.34533 7.64164 4.46889 8.48629 4.46889C9.33094 4.46889 10.148 4.34533 10.9221 4.11484C13.0956 3.46763 14.9298 1.97614 16.081 0.000114441H10.6195H6.35312H0.891602C2.04277 1.97614 3.87702 3.46763 6.05051 4.11484Z" fill="#674C33"/>
<path d="M2.69962 16.1714C2.95157 16.1714 2.89309 15.066 2.72709 15.0092C2.59823 14.9651 2.47075 14.9188 2.34532 14.8709C1.21674 14.4404 0.256408 13.8817 0 13.619V15.1019C0.51104 15.6255 1.34292 15.972 2.06666 16.1073C2.29249 16.1495 2.50791 16.1714 2.69962 16.1714Z" fill="#674C33"/>
<path d="M14.6214 14.8637C14.4888 14.9141 14.3543 14.9629 14.2189 15.0092C14.0529 15.0661 13.9944 16.1714 14.2464 16.1714C14.4432 16.1714 14.6683 16.1485 14.9057 16.104C15.6271 15.9687 16.4626 15.6332 16.9724 15.1294C16.9817 15.1202 16.9913 15.1112 17.0003 15.1019V13.619C16.9918 13.6277 16.9825 13.6368 16.9724 13.6461C16.6789 13.917 15.7133 14.4484 14.6214 14.8637Z" fill="#674C33"/>
</svg>
