<svg width="24" height="24" viewBox="0 0 24 24" fill="none" xmlns="http://www.w3.org/2000/svg">
<path d="M23.6498 22.9905L21.3342 15.8095C21.2738 15.6223 21.1443 15.4651 20.9721 15.3702L16.0663 12.6643C16.1866 12.4925 16.2967 12.313 16.3958 12.1268C17.2708 11.7847 18.0546 11.2239 18.6633 10.4876H19.1004C20.2275 10.4876 21.1444 9.57066 21.1444 8.44364C21.1444 7.39631 20.3377 6.39966 19.0098 6.39966C18.6048 2.80392 15.5458 0 11.8438 0C8.14175 0 5.08274 2.80392 4.67769 6.39956C3.36102 6.39956 2.5431 7.38633 2.5431 8.44355C2.5431 9.57061 3.46002 10.4875 4.58708 10.4875H5.40402C5.83058 10.4875 6.17643 10.1417 6.17643 9.71513V7.21205C6.17643 4.08708 8.71883 1.54472 11.8438 1.54472C14.9688 1.54472 17.5112 4.08708 17.5112 7.21209V9.45694C17.3532 9.65409 17.1778 9.83428 16.9885 9.99628C16.9991 9.79959 16.9963 9.96028 16.9963 7.212C16.9963 4.37095 14.6848 2.05955 11.8438 2.05955C9.00275 2.05955 6.69135 4.37095 6.69135 7.212V9.71513C6.69135 10.8112 7.0356 11.8282 7.6213 12.6642L2.71546 15.3701C2.54328 15.4651 2.41377 15.6222 2.35335 15.8094L0.0377692 22.9905C-0.123012 23.4892 0.249738 24 0.772863 24H22.9147C23.4396 24 23.81 23.4874 23.6498 22.9905ZM19.0559 7.94433C19.4129 7.94433 19.5996 8.19127 19.5996 8.44359C19.5996 8.69536 19.4143 8.94281 19.0559 8.94281V7.94433ZM4.63166 8.94286C4.27466 8.94281 4.08791 8.69583 4.08791 8.44359C4.08791 8.19183 4.2733 7.94438 4.63166 7.94438V8.94286ZM11.0712 22.4553H1.83346L3.72964 16.575L8.72689 13.8187C9.42702 14.352 10.237 14.6841 11.0712 14.8097V22.4553ZM8.23616 9.71517V7.21209H8.23611C8.23611 5.22281 9.85452 3.60441 11.8438 3.60441C13.8331 3.60441 15.4515 5.22281 15.4515 7.21209V9.71522C15.4515 10.1168 15.3846 10.5029 15.2629 10.864C14.973 10.93 14.6742 10.9648 14.3712 10.9648H12.8736C12.447 10.9648 12.1011 11.3107 12.1011 11.7372C12.1011 12.1638 12.447 12.5096 12.8736 12.5096H14.1226C13.4934 13.0238 12.6988 13.3229 11.8439 13.3229C9.85443 13.3229 8.23616 11.7041 8.23616 9.71517ZM12.616 22.4552V14.8097C13.4687 14.6809 14.2736 14.342 14.9607 13.8187L19.958 16.575L21.8541 22.4551H12.616V22.4552Z" fill="#674C33"/>
</svg>
