<svg width="24" height="24" viewBox="0 0 24 24" fill="none" xmlns="http://www.w3.org/2000/svg">
<path d="M12 0C7.20723 0 3.30807 3.89916 3.30807 8.69184C3.30807 14.6397 11.0865 23.3715 11.4176 23.7404C11.7287 24.0868 12.2718 24.0862 12.5823 23.7404C12.9135 23.3715 20.6919 14.6397 20.6919 8.69184C20.6918 3.89916 16.7927 0 12 0ZM12 22.0186C9.38214 18.909 4.87332 12.774 4.87332 8.69194C4.87332 4.76222 8.07029 1.56525 12 1.56525C15.9296 1.56525 19.1266 4.76222 19.1266 8.69189C19.1266 12.7741 14.6185 18.908 12 22.0186Z" fill="#674C33"/>
<path d="M12 4.31874C9.58867 4.31874 7.62695 6.2805 7.62695 8.69185C7.62695 11.1032 9.58871 13.065 12 13.065C14.4113 13.065 16.373 11.1032 16.373 8.69185C16.373 6.2805 14.4113 4.31874 12 4.31874ZM12 11.4997C10.4517 11.4997 9.1922 10.2401 9.1922 8.69185C9.1922 7.14357 10.4518 5.88399 12 5.88399C13.5482 5.88399 14.8078 7.14357 14.8078 8.69185C14.8078 10.2401 13.5482 11.4997 12 11.4997Z" fill="#674C33"/>
</svg>
