<svg width="24" height="24" viewBox="0 0 24 24" fill="none" xmlns="http://www.w3.org/2000/svg">
<path d="M23.0645 5.00478C22.1982 3.97495 20.5987 3.55487 17.5441 3.55487H6.45569C3.33112 3.55487 1.70454 4.00205 0.841471 5.09846C0 6.16746 0 7.74256 0 9.92254V14.0776C0 18.3009 0.9984 20.4451 6.45569 20.4451H17.5442C20.1931 20.4451 21.661 20.0745 22.6106 19.1656C23.5845 18.2337 24 16.712 24 14.0776V9.92254C24 7.62357 23.9349 6.03918 23.0645 5.00478ZM15.4081 12.5737L10.3729 15.2052C10.2603 15.2641 10.1372 15.2933 10.0143 15.2933C9.87507 15.2933 9.73618 15.2558 9.61316 15.1813C9.38152 15.041 9.24008 14.7899 9.24008 14.5191V9.27283C9.24008 9.00248 9.38113 8.75165 9.61231 8.61121C9.84356 8.47077 10.1312 8.46117 10.3711 8.58581L15.4063 11.2004C15.6625 11.3334 15.8234 11.5979 15.8237 11.8864C15.8241 12.1752 15.6639 12.4401 15.4081 12.5737Z" fill="#EC7412"/>
</svg>
