<svg width="18" height="26" viewBox="0 0 18 26" fill="none" xmlns="http://www.w3.org/2000/svg">
<g clip-path="url(#clip0_7_1336)">
<path d="M18.5682 -1.99995H0.431831C0.193144 -1.99995 0 -1.73565 0 -1.40903C0 -1.0824 0.193144 -0.818103 0.431831 -0.818103H1.72728V0.363692H1.29545C1.13182 0.363692 0.98256 0.490054 0.909165 0.690316L0.0455433 3.05391C-0.0210916 3.23683 -0.0143309 3.45438 0.0640844 3.62866C0.14335 3.80294 0.28253 3.90913 0.431791 3.90913H1.72724V5.09093H1.29545C1.13182 5.09093 0.98256 5.21729 0.909165 5.41755L0.0455433 7.78114C-0.0210916 7.96407 -0.0143309 8.18161 0.0640844 8.35589C0.14339 8.53017 0.28253 8.63637 0.431831 8.63637H1.72728V9.81817H1.29545C1.13182 9.81817 0.98256 9.94453 0.909165 10.1448L0.0455433 12.5084C-0.0210916 12.6914 -0.0143309 12.9089 0.0640844 13.0832C0.14335 13.2575 0.28253 13.3637 0.431791 13.3637H1.72724V14.5455H1.29545C1.13182 14.5455 0.98256 14.6718 0.909165 14.8721L0.0455433 17.2357C-0.0210916 17.4186 -0.0143309 17.6361 0.0640844 17.8104C0.14335 17.9847 0.28253 18.0909 0.431791 18.0909H1.72724V19.2716H1.29545C1.13182 19.2716 0.98256 19.398 0.909165 19.5982L0.0455433 21.9618C-0.0210916 22.1447 -0.0143309 22.3623 0.0640844 22.5366C0.14335 22.7108 0.28253 22.817 0.431791 22.817H1.72724V23.4091C1.72724 23.7357 1.92039 24 2.15907 24C2.39776 24 2.59091 23.7357 2.59091 23.4091V22.817H14.6818V23.4091C14.6818 23.7357 14.875 24 15.1136 24C15.3523 24 15.5454 23.7357 15.5454 23.4091V22.817H16.8409C16.9902 22.817 17.1293 22.7108 17.2086 22.5365C17.287 22.3622 17.2938 22.1447 17.2271 21.9618L16.3635 19.5981C16.2901 19.3978 16.1409 19.2715 15.9772 19.2715H15.5454V18.0908H16.8409C16.9902 18.0908 17.1293 17.9846 17.2086 17.8103C17.287 17.636 17.2938 17.4185 17.2271 17.2356L16.3635 14.8719C16.2901 14.6717 16.1409 14.5453 15.9772 14.5453H15.5454V13.3635H16.8409C16.9902 13.3635 17.1293 13.2573 17.2086 13.083C17.287 12.9087 17.2938 12.6912 17.2271 12.5083L16.3635 10.1446C16.2901 9.94436 16.1409 9.818 15.9772 9.818H15.5454V8.63637H16.8409C16.9902 8.63637 17.1293 8.53017 17.2086 8.35589C17.287 8.18161 17.2938 7.96407 17.2271 7.78114L16.3635 5.4175C16.2901 5.21724 16.1409 5.09087 15.9772 5.09087H15.5454V3.90908H16.8409C16.9902 3.90908 17.1293 3.80288 17.2086 3.6286C17.287 3.45432 17.2938 3.23677 17.2271 3.05385L16.3635 0.690205C16.2901 0.489943 16.1409 0.363581 15.9772 0.363581H15.5454V-0.818159H17.2727L17.3803 -1.40908C17.3803 -1.08246 17.5735 -0.818159 17.8122 -0.818159C18.0509 -0.818159 18.244 -1.08246 18.244 -1.40908L18.1363 -0.818159H18.5682C18.8069 -0.818159 19 -1.08246 19 -1.40908C19 -1.73571 18.8069 -1.99995 18.5682 -1.99995ZM14.6818 19.2715H2.59091V18.0908H14.6818V19.2715ZM14.6818 14.5455H2.59091V13.3637H14.6818V14.5455ZM14.6818 9.81817H2.59091V8.63637H14.6818V9.81817ZM14.6818 5.09093H2.59091V3.90913H14.6818V5.09093ZM14.6818 0.363692H2.59091V-0.818159H14.6818V0.363692Z" fill="#674C33"/>
</g>
<defs>
<clipPath id="clip0_7_1336">
<rect width="18" height="26" fill="white"/>
</clipPath>
</defs>
</svg>
