<svg width="24" height="24" viewBox="0 0 24 24" fill="none" xmlns="http://www.w3.org/2000/svg">
<g clip-path="url(#clip0_138_17161)">
<path d="M23.8728 17.5202C23.8437 17.4575 23.8166 17.4056 23.7915 17.364C23.3751 16.614 22.5793 15.6935 21.4047 14.6022L21.3799 14.5772L21.3675 14.5649L21.3549 14.5524H21.3423C20.8093 14.0442 20.4717 13.7025 20.3303 13.5276C20.0716 13.1943 20.0137 12.857 20.1551 12.5152C20.2549 12.257 20.6301 11.7117 21.2797 10.8785C21.6214 10.4369 21.892 10.083 22.0918 9.81638C23.5331 7.90026 24.158 6.67584 23.9663 6.14262L23.8919 6.01802C23.8418 5.943 23.7127 5.87437 23.5047 5.81179C23.2962 5.74933 23.0297 5.739 22.7047 5.78063L19.106 5.80549C19.0477 5.78483 18.9645 5.78675 18.856 5.81179C18.7477 5.83682 18.6935 5.84938 18.6935 5.84938L18.6309 5.88068L18.5812 5.91827C18.5395 5.94313 18.4937 5.98686 18.4436 6.04936C18.3939 6.11164 18.3523 6.18473 18.319 6.26801C17.9272 7.27601 17.4817 8.2132 16.9818 9.07952C16.6735 9.5961 16.3904 10.0438 16.1319 10.4229C15.8737 10.8018 15.6571 11.081 15.4823 11.26C15.3073 11.4391 15.1493 11.5826 15.0074 11.691C14.8657 11.7995 14.7575 11.8453 14.6827 11.8285C14.6076 11.8118 14.5369 11.7951 14.47 11.7785C14.3534 11.7035 14.2597 11.6015 14.189 11.4724C14.118 11.3432 14.0702 11.1807 14.0452 10.985C14.0204 10.7891 14.0057 10.6206 14.0015 10.4789C13.9976 10.3374 13.9994 10.1372 14.0078 9.87901C14.0165 9.62066 14.0204 9.44585 14.0204 9.3542C14.0204 9.03759 14.0265 8.69398 14.0389 8.32327C14.0515 7.95256 14.0617 7.65884 14.0703 7.44246C14.0788 7.22586 14.0827 6.99669 14.0827 6.7551C14.0827 6.5135 14.068 6.32404 14.0389 6.18652C14.0102 6.04918 13.9661 5.91587 13.9081 5.78662C13.8496 5.65751 13.7641 5.55763 13.6519 5.48673C13.5395 5.41591 13.3997 5.35972 13.2333 5.31796C12.7917 5.21804 12.2295 5.16399 11.5462 5.15559C9.99683 5.13896 9.00126 5.23901 8.55974 5.45561C8.3848 5.54713 8.22649 5.67217 8.08495 5.83034C7.93496 6.01368 7.91404 6.11374 8.02232 6.13019C8.52223 6.20508 8.87613 6.38422 9.08442 6.66743L9.15948 6.81751C9.21786 6.92579 9.27616 7.11749 9.3345 7.39235C9.39275 7.6672 9.43035 7.97125 9.44689 8.30432C9.48847 8.91255 9.48847 9.4332 9.44689 9.86632C9.40518 10.2996 9.36579 10.6369 9.3282 10.8785C9.2906 11.1201 9.23441 11.3159 9.15948 11.4658C9.08442 11.6157 9.03448 11.7074 9.00944 11.7406C8.98445 11.7739 8.96362 11.7949 8.94708 11.8031C8.8388 11.8446 8.72618 11.8657 8.60963 11.8657C8.4929 11.8657 8.35136 11.8073 8.18478 11.6907C8.01825 11.574 7.84542 11.4137 7.66628 11.2096C7.48714 11.0054 7.28511 10.7201 7.0601 10.3536C6.83527 9.98707 6.60199 9.55391 6.3604 9.05409L6.16052 8.69161C6.03556 8.45842 5.86487 8.11888 5.64827 7.67329C5.43153 7.22752 5.23996 6.79633 5.07343 6.3798C5.00686 6.20486 4.90685 6.07168 4.77358 5.98003L4.71104 5.94243C4.66946 5.90917 4.60272 5.87385 4.51116 5.83621C4.41946 5.79861 4.32379 5.77165 4.22374 5.75507L0.799886 5.77993C0.450013 5.77993 0.21262 5.85919 0.0876216 6.01749L0.0375959 6.09238C0.0126049 6.13409 0 6.2007 0 6.29239C0 6.38404 0.024991 6.49652 0.0750167 6.62971C0.574836 7.80441 1.11838 8.93732 1.70564 10.0286C2.29291 11.1199 2.80323 11.999 3.23631 12.665C3.66947 13.3315 4.11099 13.9606 4.56087 14.5519C5.01076 15.1434 5.30855 15.5225 5.45425 15.689C5.60012 15.8558 5.7147 15.9806 5.79799 16.0639L6.11045 16.3637C6.31037 16.5637 6.60396 16.8032 6.99135 17.0822C7.37882 17.3614 7.80778 17.6362 8.27845 17.9072C8.7492 18.1777 9.29686 18.3985 9.92172 18.5692C10.5465 18.7401 11.1546 18.8087 11.7461 18.7756H13.1832C13.4746 18.7505 13.6954 18.6588 13.8455 18.5006L13.8952 18.438C13.9286 18.3883 13.9599 18.311 13.9888 18.2071C14.0181 18.103 14.0326 17.9883 14.0326 17.8635C14.0241 17.5053 14.0513 17.1825 14.1136 16.8952C14.1759 16.6079 14.2469 16.3913 14.3263 16.2454C14.4057 16.0997 14.4952 15.9767 14.5949 15.877C14.6947 15.7771 14.7659 15.7165 14.8077 15.6957C14.8491 15.6747 14.8823 15.6605 14.9073 15.652C15.1072 15.5854 15.3425 15.6499 15.6135 15.8458C15.8843 16.0416 16.1383 16.2833 16.3758 16.5706C16.6133 16.8581 16.8985 17.1808 17.2317 17.5389C17.5651 17.8972 17.8566 18.1635 18.1064 18.3387L18.3562 18.4886C18.523 18.5887 18.7396 18.6803 19.0063 18.7636C19.2724 18.8469 19.5056 18.8677 19.7058 18.8261L22.9046 18.7762C23.221 18.7762 23.4672 18.7238 23.6419 18.6199C23.8168 18.5157 23.9208 18.401 23.9543 18.2762C23.9877 18.1513 23.9895 18.0096 23.9607 17.8512C23.931 17.6931 23.9018 17.5826 23.8728 17.5202Z" fill="#EC7412"/>
</g>
<defs>
<clipPath id="clip0_138_17161">
<rect width="24" height="24" fill="white"/>
</clipPath>
</defs>
</svg>
