<svg width="16" height="16" viewBox="0 0 16 16" fill="none" xmlns="http://www.w3.org/2000/svg">
<path d="M15.9924 12.6189C16.0263 12.8786 15.9471 13.1044 15.7552 13.2964L13.5025 15.5321C13.4008 15.645 13.2682 15.7411 13.1044 15.8201C12.9407 15.8991 12.7798 15.95 12.6218 15.9725C12.6105 15.9725 12.5765 15.9754 12.5201 15.9811C12.4637 15.9867 12.3903 15.9896 12.2999 15.9896C12.0853 15.9896 11.7381 15.9529 11.2582 15.8794C10.7783 15.806 10.1911 15.6253 9.49669 15.3374C8.80212 15.0495 8.01453 14.6175 7.13378 14.0417C6.25303 13.4658 5.31576 12.6753 4.32206 11.6703C3.53162 10.8912 2.87668 10.1459 2.35724 9.43453C1.83781 8.72311 1.42 8.06534 1.10383 7.46122C0.78762 6.8571 0.550487 6.30943 0.392399 5.81823C0.23431 5.32702 0.127036 4.90357 0.0705753 4.54787C0.0141151 4.19217 -0.00846903 3.91269 0.00282301 3.70944C0.0141151 3.50618 0.0197611 3.39326 0.0197611 3.37068C0.0423452 3.21259 0.0931594 3.05168 0.172204 2.88794C0.251248 2.72421 0.34723 2.59152 0.460151 2.4899L2.71291 0.237133C2.871 0.0790443 3.05168 0 3.25493 0C3.40173 0 3.53159 0.0423452 3.64451 0.127036C3.75743 0.211726 3.85341 0.316177 3.93246 0.44039L5.74483 3.87882C5.84646 4.05949 5.87469 4.2571 5.82952 4.47165C5.78435 4.6862 5.68837 4.86687 5.54157 5.01367L4.71161 5.84363C4.68902 5.86622 4.66926 5.90292 4.65232 5.95373C4.63539 6.00455 4.62692 6.04689 4.62692 6.08077C4.67208 6.3179 4.77371 6.58891 4.9318 6.89379C5.06731 7.1648 5.27621 7.4951 5.55851 7.88467C5.84081 8.27425 6.24168 8.72308 6.76111 9.23122C7.26925 9.75071 7.72094 10.1543 8.11616 10.4423C8.5113 10.7302 8.8417 10.942 9.10706 11.0775C9.37243 11.213 9.57568 11.2949 9.71681 11.323L9.92848 11.3654C9.95106 11.3654 9.98784 11.3569 10.0386 11.34C10.0894 11.323 10.1261 11.3033 10.1487 11.2807L11.1142 10.2983C11.3175 10.1176 11.5546 10.0273 11.8256 10.0273C12.0176 10.0273 12.17 10.0611 12.2829 10.1289H12.2998L15.5688 12.0599C15.806 12.2068 15.9472 12.393 15.9924 12.6189Z" fill="#674C33"/>
</svg>
