<svg width="14" height="12" viewBox="0 0 14 12" fill="none" xmlns="http://www.w3.org/2000/svg">
<path fill-rule="evenodd" clip-rule="evenodd" d="M11.4206 1.46539C10.2329 0.345963 9.10363 0 9.10363 0L6.82557 8.11052H6.80607L4.50856 0C4.50856 0 3.37925 0.335808 2.19154 1.46539C0.925939 2.66616 -0.164405 4.50809 0.0205605 7.42868C0.166599 9.73868 1.80214 11.7027 1.80214 11.7027L4.96614 11.6925C4.96614 11.6925 2.24997 10.1865 1.5977 7.81537C0.818866 5.0169 2.03579 3.0732 2.97038 2.14716C3.35007 1.80116 3.90497 1.71974 4.1094 2.46263C4.81035 4.83371 6.81582 11.6213 6.81582 11.6213L6.82557 11.6213C6.82557 11.6213 8.82133 4.83374 9.53199 2.46266C9.74617 1.71977 10.3011 1.8012 10.671 2.1472C11.6056 3.07324 12.8225 5.0169 12.0437 7.81541C11.3914 10.1865 8.67526 11.6926 8.67526 11.6926L11.8393 11.7028C11.8393 11.7028 13.4845 9.72857 13.6208 7.42871C13.7863 4.50809 12.696 2.66616 11.4206 1.46539Z" fill="#674C33"/>
</svg>
