<svg width="24" height="24" viewBox="0 0 24 24" fill="none" xmlns="http://www.w3.org/2000/svg">
<g clip-path="url(#clip0_15_22333)">
<path d="M17.3766 0H6.62295C2.97106 0 0 2.9712 0 6.62309V17.3768C0 21.0288 2.97106 23.9999 6.62295 23.9999H17.3766C21.0288 23.9999 23.9999 21.0287 23.9999 17.3768V6.62309C24 2.9712 21.0288 0 17.3766 0ZM21.8706 17.3768C21.8706 19.8547 19.8547 21.8705 17.3768 21.8705H6.62295C4.1452 21.8706 2.12938 19.8547 2.12938 17.3768V6.62309C2.12938 4.14534 4.1452 2.12938 6.62295 2.12938H17.3766C19.8545 2.12938 21.8705 4.14534 21.8705 6.62309V17.3768H21.8706Z" fill="#674C33"/>
<path d="M12 5.81604C8.58996 5.81604 5.8158 8.5902 5.8158 12.0002C5.8158 15.41 8.58996 18.1841 12 18.1841C15.4099 18.1841 18.1841 15.41 18.1841 12.0002C18.1841 8.5902 15.4099 5.81604 12 5.81604ZM12 16.0545C9.76424 16.0545 7.94518 14.2358 7.94518 12.0001C7.94518 9.7642 9.7641 7.94528 12 7.94528C14.2358 7.94528 16.0547 9.7642 16.0547 12.0001C16.0547 14.2358 14.2357 16.0545 12 16.0545Z" fill="#674C33"/>
<path d="M18.4434 4.01038C18.0332 4.01038 17.6301 4.17647 17.3404 4.46748C17.0492 4.75708 16.8819 5.16024 16.8819 5.57193C16.8819 5.98233 17.0494 6.38535 17.3404 6.67637C17.63 6.96596 18.0332 7.13348 18.4434 7.13348C18.8551 7.13348 19.2568 6.96596 19.5479 6.67637C19.8389 6.38535 20.005 5.98219 20.005 5.57193C20.005 5.16024 19.8389 4.75708 19.5479 4.46748C19.2583 4.17647 18.8551 4.01038 18.4434 4.01038Z" fill="#674C33"/>
</g>
<defs>
<clipPath id="clip0_15_22333">
<rect width="24" height="24" fill="white"/>
</clipPath>
</defs>
</svg>
